<svg width="47" height="47" viewBox="0 0 47 47" fill="none" xmlns="http://www.w3.org/2000/svg">
<path d="M27.2111 2.44214C26.9279 2.15905 26.544 2 26.1437 2H6.11343C4.94621 2 4 2.94621 4 4.11341V42.0254C4 43.1926 4.94621 44.1388 6.11343 44.1388H34.9796C36.1468 44.1388 37.093 43.1926 37.093 42.0254V12.9495C37.093 12.5491 36.9341 12.1651 36.6509 11.882L27.2111 2.44214Z" fill="url(#paint0_linear_4_313)"/>
<path d="M26.209 2.62506C26.209 2.32103 26.2963 2.12685 26.1308 2.09435C26.2881 2.10437 26.5168 2.16136 26.6616 2.21818C26.8476 2.29123 26.618 2.45251 26.7635 2.59473C26.7679 2.59887 26.7721 2.60303 26.7762 2.60726L36.2161 12.0471C36.2448 12.0759 36.2724 12.1057 36.2985 12.1365C36.4275 12.288 36.5244 12.4626 36.5849 12.6497C36.6331 12.7985 36.6583 12.9552 36.6583 13.1146V13.2099C36.6583 12.8594 36.4047 12.6497 36.2161 12.6497H28.0205C27.0201 12.6497 26.209 11.8386 26.209 10.8382V2.62506Z" fill="#D2C5DF"/>
<path d="M26.6439 2.45984C26.6439 2.15581 26.4053 2.03545 26.2398 2.00294C26.3971 2.01297 26.5507 2.04748 26.6954 2.1043C26.8814 2.17735 27.0527 2.28729 27.1984 2.4295C27.2026 2.43365 27.2069 2.43781 27.2111 2.44202L36.6509 11.8819C36.6797 11.9107 36.7072 11.9405 36.7335 11.9713C36.8622 12.1228 36.9591 12.2974 37.0198 12.4845C37.068 12.6333 37.093 12.79 37.093 12.9494V13.0447C37.093 12.6941 36.8396 12.4845 36.6509 12.4845H28.4555C27.4549 12.4845 26.6439 11.6734 26.6439 10.673V2.45984Z" fill="url(#paint1_linear_4_313)"/>
<path d="M26.6439 2.45984C26.6439 2.15581 26.4053 2.03545 26.2398 2.00294C26.3971 2.01297 26.5507 2.04748 26.6954 2.1043C26.8814 2.17735 27.0527 2.28729 27.1984 2.4295C27.2026 2.43365 27.2069 2.43781 27.2111 2.44202L36.6509 11.8819C36.6797 11.9107 36.7072 11.9405 36.7335 11.9713C36.8622 12.1228 36.9591 12.2974 37.0198 12.4845C37.068 12.6333 37.093 12.79 37.093 12.9494V13.0447C37.093 12.6941 36.8396 12.4845 36.6509 12.4845H28.4555C27.4549 12.4845 26.6439 11.6734 26.6439 10.673V2.45984Z" fill="url(#paint2_linear_4_313)"/>
<path d="M30.2941 17.0252H10.7873C10.3737 17.0252 10.0384 17.3605 10.0384 17.7741C10.0384 18.1877 10.3737 18.523 10.7873 18.523H30.2941C30.7077 18.523 31.043 18.1877 31.043 17.7741C31.043 17.3605 30.7077 17.0252 30.2941 17.0252Z" fill="url(#paint3_linear_4_313)"/>
<path d="M30.2941 21.554H10.7873C10.3737 21.554 10.0384 21.8892 10.0384 22.3029C10.0384 22.7165 10.3737 23.0518 10.7873 23.0518H30.2941C30.7077 23.0518 31.043 22.7165 31.043 22.3029C31.043 21.8892 30.7077 21.554 30.2941 21.554Z" fill="url(#paint4_linear_4_313)"/>
<path d="M30.2941 26.0827H10.7873C10.3737 26.0827 10.0384 26.418 10.0384 26.8316C10.0384 27.2452 10.3737 27.5805 10.7873 27.5805H30.2941C30.7077 27.5805 31.043 27.2452 31.043 26.8316C31.043 26.418 30.7077 26.0827 30.2941 26.0827Z" fill="url(#paint5_linear_4_313)"/>
<path d="M22.8522 30.6115H10.7873C10.3737 30.6115 10.0384 30.9468 10.0384 31.3604C10.0384 31.774 10.3737 32.1093 10.7873 32.1093H22.8522C23.2658 32.1093 23.6011 31.774 23.6011 31.3604C23.6011 30.9468 23.2658 30.6115 22.8522 30.6115Z" fill="url(#paint6_linear_4_313)"/>
<path d="M34.2435 19.2932C35.2104 18.5 36.6371 18.6407 37.4303 19.6076L40.3749 23.1971C41.1682 24.164 41.0273 25.5907 40.0604 26.384L18.7181 43.8921L12.9011 36.8013L34.2435 19.2932Z" fill="url(#paint7_radial_4_313)"/>
<path d="M34.2435 19.2932C35.2104 18.5 36.6371 18.6407 37.4303 19.6076L40.3749 23.1971C41.1682 24.164 41.0273 25.5907 40.0604 26.384L18.7181 43.8921L12.9011 36.8013L34.2435 19.2932Z" fill="url(#paint8_linear_4_313)"/>
<path d="M34.2435 19.2932C35.2104 18.5 36.6371 18.6407 37.4303 19.6076L40.3749 23.1971C41.1682 24.164 41.0273 25.5907 40.0604 26.384L18.7181 43.8921L12.9011 36.8013L34.2435 19.2932Z" fill="url(#paint9_linear_4_313)"/>
<path d="M34.2435 19.2932C35.2104 18.5 36.6371 18.6407 37.4303 19.6076L40.3749 23.1971C41.1682 24.164 41.0273 25.5907 40.0604 26.384L18.7181 43.8921L12.9011 36.8013L34.2435 19.2932Z" fill="url(#paint10_radial_4_313)"/>
<path d="M11.2513 43.8935C11.2273 44.0168 11.3215 44.1316 11.4472 44.1319L18.0193 44.1485C18.2083 44.1489 18.3937 44.0958 18.5539 43.9952L18.7181 43.892L12.9012 36.8011L12.7891 36.9125C12.6472 37.0537 12.5507 37.2341 12.5125 37.4305L11.2513 43.8935Z" fill="url(#paint11_linear_4_313)"/>
<path d="M11.2513 43.8935C11.2273 44.0168 11.3215 44.1316 11.4472 44.1319L18.0193 44.1485C18.2083 44.1489 18.3937 44.0958 18.5539 43.9952L18.7181 43.892L12.9012 36.8011L12.7891 36.9125C12.6472 37.0537 12.5507 37.2341 12.5125 37.4305L11.2513 43.8935Z" fill="url(#paint12_linear_4_313)"/>
<path d="M11.2513 43.8935C11.2273 44.0168 11.3215 44.1316 11.4472 44.1319L18.0193 44.1485C18.2083 44.1489 18.3937 44.0958 18.5539 43.9952L18.7181 43.892L12.9012 36.8011L12.7891 36.9125C12.6472 37.0537 12.5507 37.2341 12.5125 37.4305L11.2513 43.8935Z" fill="url(#paint13_linear_4_313)"/>
<path d="M37.1721 28.7533L40.6512 25.8992C41.2918 25.3737 41.3851 24.4284 40.8596 23.7878L36.9456 19.0168C36.4201 18.3761 35.4749 18.2828 34.8342 18.8083L31.3552 21.6625L37.1721 28.7533Z" fill="url(#paint14_linear_4_313)"/>
<path d="M37.1721 28.7533L40.6512 25.8992C41.2918 25.3737 41.3851 24.4284 40.8596 23.7878L36.9456 19.0168C36.4201 18.3761 35.4749 18.2828 34.8342 18.8083L31.3552 21.6625L37.1721 28.7533Z" fill="url(#paint15_linear_4_313)"/>
<path d="M37.1721 28.7533L40.6512 25.8992C41.2918 25.3737 41.3851 24.4284 40.8596 23.7878L36.9456 19.0168C36.4201 18.3761 35.4749 18.2828 34.8342 18.8083L31.3552 21.6625L37.1721 28.7533Z" fill="url(#paint16_radial_4_313)"/>
<path d="M27.8672 24.5238L31.3552 21.6623L37.1721 28.7532L33.6841 31.6145L27.8672 24.5238Z" fill="url(#paint17_linear_4_313)"/>
<path d="M27.8672 24.5238L31.3552 21.6623L37.1721 28.7532L33.6841 31.6145L27.8672 24.5238Z" fill="url(#paint18_linear_4_313)"/>
<path d="M11.4472 44.1319C11.3215 44.1316 11.2273 44.0168 11.2513 43.8935L11.6937 41.6264L13.7538 44.1377L11.4472 44.1319Z" fill="url(#paint19_linear_4_313)"/>
<defs>
<linearGradient id="paint0_linear_4_313" x1="20.5466" y1="2" x2="20.5466" y2="45.5367" gradientUnits="userSpaceOnUse">
<stop stop-color="#E4DCEA"/>
<stop offset="1" stop-color="#CEC1D5"/>
</linearGradient>
<linearGradient id="paint1_linear_4_313" x1="27.3987" y1="12.0599" x2="31.385" y2="8.07364" gradientUnits="userSpaceOnUse">
<stop stop-color="#CAC2CE"/>
<stop offset="1" stop-color="#BDB4C1"/>
</linearGradient>
<linearGradient id="paint2_linear_4_313" x1="32.2812" y1="7.29524" x2="30.3825" y2="9.21202" gradientUnits="userSpaceOnUse">
<stop offset="0.119171" stop-color="#DBDADC"/>
<stop offset="0.577307" stop-color="#CBC7D0" stop-opacity="0"/>
</linearGradient>
<linearGradient id="paint3_linear_4_313" x1="10.0384" y1="17.7741" x2="31.0429" y2="17.7741" gradientUnits="userSpaceOnUse">
<stop stop-color="#9C96A2"/>
<stop offset="1" stop-color="#9A95A1"/>
</linearGradient>
<linearGradient id="paint4_linear_4_313" x1="10.0384" y1="22.3029" x2="31.0429" y2="22.3029" gradientUnits="userSpaceOnUse">
<stop stop-color="#9C96A2"/>
<stop offset="1" stop-color="#9A95A1"/>
</linearGradient>
<linearGradient id="paint5_linear_4_313" x1="10.0384" y1="26.8316" x2="31.0429" y2="26.8316" gradientUnits="userSpaceOnUse">
<stop stop-color="#9C96A2"/>
<stop offset="1" stop-color="#9A95A1"/>
</linearGradient>
<linearGradient id="paint6_linear_4_313" x1="10.0384" y1="31.3604" x2="23.6011" y2="31.3604" gradientUnits="userSpaceOnUse">
<stop stop-color="#9C96A2"/>
<stop offset="1" stop-color="#9A95A1"/>
</linearGradient>
<radialGradient id="paint7_radial_4_313" cx="0" cy="0" r="1" gradientUnits="userSpaceOnUse" gradientTransform="translate(15.7679 40.5381) rotate(-40.0074) scale(19.6703 12.2014)">
<stop stop-color="#FF9130"/>
<stop offset="1" stop-color="#F3633D"/>
</radialGradient>
<linearGradient id="paint8_linear_4_313" x1="20.7796" y1="29.8522" x2="22.1875" y2="31.4985" gradientUnits="userSpaceOnUse">
<stop stop-color="#EE9B6A"/>
<stop offset="1" stop-color="#EE9B6A" stop-opacity="0"/>
</linearGradient>
<linearGradient id="paint9_linear_4_313" x1="30.8743" y1="34.4915" x2="29.1615" y2="32.7523" gradientUnits="userSpaceOnUse">
<stop stop-color="#E66A62"/>
<stop offset="1" stop-color="#E66A62" stop-opacity="0"/>
</linearGradient>
<radialGradient id="paint10_radial_4_313" cx="0" cy="0" r="1" gradientUnits="userSpaceOnUse" gradientTransform="translate(15.5376 40.3269) rotate(-39.2242) scale(18.1663 4.06231)">
<stop stop-color="#FF994D"/>
<stop offset="1" stop-color="#FF994D" stop-opacity="0"/>
</radialGradient>
<linearGradient id="paint11_linear_4_313" x1="13.4572" y1="40.4042" x2="15.6645" y2="44.7676" gradientUnits="userSpaceOnUse">
<stop stop-color="#D8A587"/>
<stop offset="1" stop-color="#CE7A98"/>
</linearGradient>
<linearGradient id="paint12_linear_4_313" x1="16.5178" y1="40.8956" x2="15.9447" y2="41.372" gradientUnits="userSpaceOnUse">
<stop offset="0.207411" stop-color="#FFC09F"/>
<stop offset="1" stop-color="#FCB196" stop-opacity="0"/>
</linearGradient>
<linearGradient id="paint13_linear_4_313" x1="11.1087" y1="40.0154" x2="13.2053" y2="40.4107" gradientUnits="userSpaceOnUse">
<stop stop-color="#DEBCA3"/>
<stop offset="1" stop-color="#DEBCA3" stop-opacity="0"/>
</linearGradient>
<linearGradient id="paint14_linear_4_313" x1="39.6089" y1="21.7233" x2="35.1043" y2="25.3614" gradientUnits="userSpaceOnUse">
<stop stop-color="#FF6153"/>
<stop offset="1" stop-color="#FF6154"/>
</linearGradient>
<linearGradient id="paint15_linear_4_313" x1="32.3677" y1="20.6317" x2="35.3076" y2="23.9368" gradientUnits="userSpaceOnUse">
<stop stop-color="#F1553E"/>
<stop offset="1" stop-color="#F1553E" stop-opacity="0"/>
</linearGradient>
<radialGradient id="paint16_radial_4_313" cx="0" cy="0" r="1" gradientUnits="userSpaceOnUse" gradientTransform="translate(38.6771 22.5735) rotate(140.636) scale(1.3702 3.11269)">
<stop offset="0.177419" stop-color="#FF786D"/>
<stop offset="1" stop-color="#FF786D" stop-opacity="0"/>
</radialGradient>
<linearGradient id="paint17_linear_4_313" x1="29.6654" y1="23.1916" x2="33.4027" y2="27.329" gradientUnits="userSpaceOnUse">
<stop stop-color="#C5C4CB"/>
<stop offset="1" stop-color="#E8DEFA"/>
</linearGradient>
<linearGradient id="paint18_linear_4_313" x1="35.4473" y1="30.797" x2="33.3666" y2="28.3305" gradientUnits="userSpaceOnUse">
<stop stop-color="#C9B9E0"/>
<stop offset="1" stop-color="#C9B9E0" stop-opacity="0"/>
</linearGradient>
<linearGradient id="paint19_linear_4_313" x1="11.5692" y1="42.6676" x2="12.4805" y2="44.2348" gradientUnits="userSpaceOnUse">
<stop stop-color="#461E49"/>
<stop offset="1" stop-color="#450F51"/>
</linearGradient>
</defs>
</svg>
