<svg width="47" height="47" viewBox="0 0 47 47" fill="none" xmlns="http://www.w3.org/2000/svg">
<path d="M23.7438 11.9961H34.9213C36.4935 11.9961 37.6586 13.1612 37.6586 14.7334V16.1021L19.866 30.4731L4.27604 36.9476C3.74446 36.1259 3.442 34.9525 3.442 33.8948V9.36873C3.442 7.79649 4.717 6.52144 6.2892 6.52144H15.4251C16.5319 6.52144 17.5935 6.95955 18.3782 7.74011L21.7352 11.1579C22.269 11.6882 22.9915 11.9961 23.7438 11.9961Z" fill="#FFB02E"/>
<path d="M38.9055 16.1021H15.604C14.5662 16.1024 13.5539 16.4232 12.7055 17.0206C11.8571 17.6182 11.214 18.4632 10.8643 19.4403C4.58074 37.4587 5.09947 36.1638 4.9407 36.3664C4.87353 36.4702 4.7818 36.5557 4.67364 36.6154C4.56547 36.675 4.44422 36.7071 4.3207 36.7086C4.23243 36.7075 4.14619 36.6819 4.07159 36.6348C4.53925 37.5149 5.25097 38.2413 6.12133 38.7268C6.99169 39.2124 7.98373 39.4365 8.97828 39.3721H33.5485C34.1457 39.3693 34.7263 39.1744 35.2041 38.8162C35.682 38.4581 36.032 37.9558 36.2024 37.3835L41.625 19.8166C41.7603 19.3891 41.793 18.9356 41.7203 18.4933C41.6476 18.0508 41.4717 17.6317 41.2068 17.27C40.9419 16.9081 40.5957 16.614 40.1957 16.411C39.7959 16.2082 39.3539 16.1022 38.9055 16.1021Z" fill="#FCD53F"/>
</svg>
