<svg width="47" height="47" viewBox="0 0 47 47" fill="none" xmlns="http://www.w3.org/2000/svg">
<g clip-path="url(#clip0_4_316)">
<path d="M16.6535 6.26049C16.6535 3.31622 19.0402 0.92942 21.9845 0.92942C24.9287 0.92942 27.3156 3.31622 27.3156 6.26049V12.3955C27.3156 12.9187 27.2793 13.4404 27.1984 13.9619C27.1689 14.1524 27.1394 14.3425 27.1211 14.5325C27.0629 15.1331 27.1339 15.9174 27.5421 16.4443L26.5673 17.3847C31.4553 19.8818 34.8046 24.9885 34.8046 30.8825C34.8046 32.4793 34.5587 34.0182 34.1032 35.4632L32.4878 46.011H19.3544V46.0064C11.2437 45.8318 4.73656 40.5428 4.73656 30.8825C4.73656 25.2038 7.45566 20.6322 11.5693 18.0545L11.5591 18.0464C11.8393 17.8517 12.1698 17.6535 12.524 17.4411L12.5266 17.4395C13.6933 16.7401 15.1191 15.8853 15.8714 14.4874C16.5238 13.2756 16.6504 11.3086 16.6504 10.3967L16.6535 10.3981V6.26049Z" fill="url(#paint0_linear_4_316)"/>
<path d="M16.6535 6.26049C16.6535 3.31622 19.0402 0.92942 21.9845 0.92942C24.9287 0.92942 27.3156 3.31622 27.3156 6.26049V12.3955C27.3156 12.9187 27.2793 13.4404 27.1984 13.9619C27.1689 14.1524 27.1394 14.3425 27.1211 14.5325C27.0629 15.1331 27.1339 15.9174 27.5421 16.4443L26.5673 17.3847C31.4553 19.8818 34.8046 24.9885 34.8046 30.8825C34.8046 32.4793 34.5587 34.0182 34.1032 35.4632L32.4878 46.011H19.3544V46.0064C11.2437 45.8318 4.73656 40.5428 4.73656 30.8825C4.73656 25.2038 7.45566 20.6322 11.5693 18.0545L11.5591 18.0464C11.8393 17.8517 12.1698 17.6535 12.524 17.4411L12.5266 17.4395C13.6933 16.7401 15.1191 15.8853 15.8714 14.4874C16.5238 13.2756 16.6504 11.3086 16.6504 10.3967L16.6535 10.3981V6.26049Z" fill="url(#paint1_radial_4_316)"/>
<path d="M16.6535 6.26049C16.6535 3.31622 19.0402 0.92942 21.9845 0.92942C24.9287 0.92942 27.3156 3.31622 27.3156 6.26049V12.3955C27.3156 12.9187 27.2793 13.4404 27.1984 13.9619C27.1689 14.1524 27.1394 14.3425 27.1211 14.5325C27.0629 15.1331 27.1339 15.9174 27.5421 16.4443L26.5673 17.3847C31.4553 19.8818 34.8046 24.9885 34.8046 30.8825C34.8046 32.4793 34.5587 34.0182 34.1032 35.4632L32.4878 46.011H19.3544V46.0064C11.2437 45.8318 4.73656 40.5428 4.73656 30.8825C4.73656 25.2038 7.45566 20.6322 11.5693 18.0545L11.5591 18.0464C11.8393 17.8517 12.1698 17.6535 12.524 17.4411L12.5266 17.4395C13.6933 16.7401 15.1191 15.8853 15.8714 14.4874C16.5238 13.2756 16.6504 11.3086 16.6504 10.3967L16.6535 10.3981V6.26049Z" fill="url(#paint2_radial_4_316)"/>
<path d="M16.6535 6.26049C16.6535 3.31622 19.0402 0.92942 21.9845 0.92942C24.9287 0.92942 27.3156 3.31622 27.3156 6.26049V12.3955C27.3156 12.9187 27.2793 13.4404 27.1984 13.9619C27.1689 14.1524 27.1394 14.3425 27.1211 14.5325C27.0629 15.1331 27.1339 15.9174 27.5421 16.4443L26.5673 17.3847C31.4553 19.8818 34.8046 24.9885 34.8046 30.8825C34.8046 32.4793 34.5587 34.0182 34.1032 35.4632L32.4878 46.011H19.3544V46.0064C11.2437 45.8318 4.73656 40.5428 4.73656 30.8825C4.73656 25.2038 7.45566 20.6322 11.5693 18.0545L11.5591 18.0464C11.8393 17.8517 12.1698 17.6535 12.524 17.4411L12.5266 17.4395C13.6933 16.7401 15.1191 15.8853 15.8714 14.4874C16.5238 13.2756 16.6504 11.3086 16.6504 10.3967L16.6535 10.3981V6.26049Z" fill="url(#paint3_radial_4_316)"/>
<path d="M16.6535 6.26049C16.6535 3.31622 19.0402 0.92942 21.9845 0.92942C24.9287 0.92942 27.3156 3.31622 27.3156 6.26049V12.3955C27.3156 12.9187 27.2793 13.4404 27.1984 13.9619C27.1689 14.1524 27.1394 14.3425 27.1211 14.5325C27.0629 15.1331 27.1339 15.9174 27.5421 16.4443L26.5673 17.3847C31.4553 19.8818 34.8046 24.9885 34.8046 30.8825C34.8046 32.4793 34.5587 34.0182 34.1032 35.4632L32.4878 46.011H19.3544V46.0064C11.2437 45.8318 4.73656 40.5428 4.73656 30.8825C4.73656 25.2038 7.45566 20.6322 11.5693 18.0545L11.5591 18.0464C11.8393 17.8517 12.1698 17.6535 12.524 17.4411L12.5266 17.4395C13.6933 16.7401 15.1191 15.8853 15.8714 14.4874C16.5238 13.2756 16.6504 11.3086 16.6504 10.3967L16.6535 10.3981V6.26049Z" fill="url(#paint4_radial_4_316)"/>
<path d="M16.6535 6.26049C16.6535 3.31622 19.0402 0.92942 21.9845 0.92942C24.9287 0.92942 27.3156 3.31622 27.3156 6.26049V12.3955C27.3156 12.9187 27.2793 13.4404 27.1984 13.9619C27.1689 14.1524 27.1394 14.3425 27.1211 14.5325C27.0629 15.1331 27.1339 15.9174 27.5421 16.4443L26.5673 17.3847C31.4553 19.8818 34.8046 24.9885 34.8046 30.8825C34.8046 32.4793 34.5587 34.0182 34.1032 35.4632L32.4878 46.011H19.3544V46.0064C11.2437 45.8318 4.73656 40.5428 4.73656 30.8825C4.73656 25.2038 7.45566 20.6322 11.5693 18.0545L11.5591 18.0464C11.8393 17.8517 12.1698 17.6535 12.524 17.4411L12.5266 17.4395C13.6933 16.7401 15.1191 15.8853 15.8714 14.4874C16.5238 13.2756 16.6504 11.3086 16.6504 10.3967L16.6535 10.3981V6.26049Z" fill="url(#paint5_radial_4_316)"/>
<path d="M16.6535 6.26049C16.6535 3.31622 19.0402 0.92942 21.9845 0.92942C24.9287 0.92942 27.3156 3.31622 27.3156 6.26049V12.3955C27.3156 12.9187 27.2793 13.4404 27.1984 13.9619C27.1689 14.1524 27.1394 14.3425 27.1211 14.5325C27.0629 15.1331 27.1339 15.9174 27.5421 16.4443L26.5673 17.3847C31.4553 19.8818 34.8046 24.9885 34.8046 30.8825C34.8046 32.4793 34.5587 34.0182 34.1032 35.4632L32.4878 46.011H19.3544V46.0064C11.2437 45.8318 4.73656 40.5428 4.73656 30.8825C4.73656 25.2038 7.45566 20.6322 11.5693 18.0545L11.5591 18.0464C11.8393 17.8517 12.1698 17.6535 12.524 17.4411L12.5266 17.4395C13.6933 16.7401 15.1191 15.8853 15.8714 14.4874C16.5238 13.2756 16.6504 11.3086 16.6504 10.3967L16.6535 10.3981V6.26049Z" fill="url(#paint6_radial_4_316)"/>
<path d="M16.6535 6.26049C16.6535 3.31622 19.0402 0.92942 21.9845 0.92942C24.9287 0.92942 27.3156 3.31622 27.3156 6.26049V12.3955C27.3156 12.9187 27.2793 13.4404 27.1984 13.9619C27.1689 14.1524 27.1394 14.3425 27.1211 14.5325C27.0629 15.1331 27.1339 15.9174 27.5421 16.4443L26.5673 17.3847C31.4553 19.8818 34.8046 24.9885 34.8046 30.8825C34.8046 32.4793 34.5587 34.0182 34.1032 35.4632L32.4878 46.011H19.3544V46.0064C11.2437 45.8318 4.73656 40.5428 4.73656 30.8825C4.73656 25.2038 7.45566 20.6322 11.5693 18.0545L11.5591 18.0464C11.8393 17.8517 12.1698 17.6535 12.524 17.4411L12.5266 17.4395C13.6933 16.7401 15.1191 15.8853 15.8714 14.4874C16.5238 13.2756 16.6504 11.3086 16.6504 10.3967L16.6535 10.3981V6.26049Z" fill="url(#paint7_linear_4_316)"/>
<path d="M35.1522 21.7429C35.1522 19.4582 33.3001 17.6061 31.0155 17.6061H26.4334C24.1488 17.6061 22.2967 19.4582 22.2967 21.7429C22.2967 23.0169 22.8727 24.1564 23.7784 24.9152C22.777 25.6729 22.1297 26.8756 22.1297 28.2263C22.1297 29.4909 22.6973 30.6259 23.5915 31.3871C22.6973 32.146 22.1297 33.278 22.1297 34.5426V34.7467C22.1297 35.8802 22.5856 36.9072 23.324 37.6543C22.5865 38.384 22.1297 39.3967 22.1297 40.5159C22.1297 42.7391 23.9319 44.5414 26.1551 44.5414H30.7002C32.9234 44.5414 34.7255 42.7391 34.7255 40.5159C34.7255 39.7801 34.5281 39.0903 34.1833 38.4968C35.5938 37.8378 36.5713 36.4064 36.5713 34.7467V34.5426C36.5713 33.2626 35.9898 32.1184 35.0768 31.3596C35.9526 30.5985 36.5065 29.4757 36.5065 28.2263C36.5065 26.5691 35.5319 25.1345 34.1248 24.4717C34.7644 23.7433 35.1522 22.7883 35.1522 21.7429Z" fill="url(#paint8_linear_4_316)"/>
<path d="M38.8451 20.0114V20.0114C38.8451 17.4059 36.733 15.2938 34.1275 15.2938H28.9022C26.2967 15.2938 24.1846 17.4059 24.1846 20.0114V20.0114C24.1846 22.6168 26.2967 24.729 28.9022 24.729H34.1275C36.733 24.729 38.8451 22.6168 38.8451 20.0114Z" fill="url(#paint9_linear_4_316)"/>
<path d="M38.8451 20.0114V20.0114C38.8451 17.4059 36.733 15.2938 34.1275 15.2938H28.9022C26.2967 15.2938 24.1846 17.4059 24.1846 20.0114V20.0114C24.1846 22.6168 26.2967 24.729 28.9022 24.729H34.1275C36.733 24.729 38.8451 22.6168 38.8451 20.0114Z" fill="url(#paint10_radial_4_316)"/>
<path d="M38.8451 20.0114V20.0114C38.8451 17.4059 36.733 15.2938 34.1275 15.2938H28.9022C26.2967 15.2938 24.1846 17.4059 24.1846 20.0114V20.0114C24.1846 22.6168 26.2967 24.729 28.9022 24.729H34.1275C36.733 24.729 38.8451 22.6168 38.8451 20.0114Z" fill="url(#paint11_radial_4_316)"/>
<path d="M35.2417 17.6061H29.3731C28.247 17.6061 27.3341 18.519 27.3341 19.6451V19.6451C27.3341 20.7712 28.247 21.6841 29.3731 21.6841H35.2417C36.3678 21.6841 37.2807 20.7712 37.2807 19.6451V19.6451C37.2807 18.519 36.3678 17.6061 35.2417 17.6061Z" fill="url(#paint12_linear_4_316)"/>
<path d="M33.7678 46.011C36.3031 46.011 38.3584 43.9557 38.3584 41.4203C38.3584 38.885 36.3031 36.8297 33.7678 36.8297H28.5847C26.0493 36.8297 23.994 38.885 23.994 41.4203C23.994 43.9557 26.0493 46.011 28.5847 46.011H33.7678Z" fill="url(#paint13_linear_4_316)"/>
<path d="M33.7678 46.011C36.3031 46.011 38.3584 43.9557 38.3584 41.4203C38.3584 38.885 36.3031 36.8297 33.7678 36.8297H28.5847C26.0493 36.8297 23.994 38.885 23.994 41.4203C23.994 43.9557 26.0493 46.011 28.5847 46.011H33.7678Z" fill="url(#paint14_radial_4_316)"/>
<path d="M33.7678 46.011C36.3031 46.011 38.3584 43.9557 38.3584 41.4203C38.3584 38.885 36.3031 36.8297 33.7678 36.8297H28.5847C26.0493 36.8297 23.994 38.885 23.994 41.4203C23.994 43.9557 26.0493 46.011 28.5847 46.011H33.7678Z" fill="url(#paint15_radial_4_316)"/>
<path d="M36.0841 39.5585H29.7714C29.1106 39.5585 28.5749 40.0942 28.5749 40.755C28.5749 41.4158 29.1106 41.9516 29.7714 41.9516H36.0841C36.7449 41.9516 37.2806 41.4158 37.2806 40.755C37.2806 40.0942 36.7449 39.5585 36.0841 39.5585Z" fill="url(#paint16_linear_4_316)"/>
<path d="M40.4634 34.841V34.6083C40.4634 32.0028 38.3513 29.8907 35.7459 29.8907H28.7117C26.1063 29.8907 23.9941 32.0028 23.9941 34.6083V34.841C23.9941 37.4465 26.1063 39.5586 28.7117 39.5586H35.7459C38.3513 39.5586 40.4634 37.4465 40.4634 34.841Z" fill="url(#paint17_linear_4_316)"/>
<path d="M40.4634 34.841V34.6083C40.4634 32.0028 38.3513 29.8907 35.7459 29.8907H28.7117C26.1063 29.8907 23.9941 32.0028 23.9941 34.6083V34.841C23.9941 37.4465 26.1063 39.5586 28.7117 39.5586H35.7459C38.3513 39.5586 40.4634 37.4465 40.4634 34.841Z" fill="url(#paint18_radial_4_316)"/>
<path d="M40.4634 34.841V34.6083C40.4634 32.0028 38.3513 29.8907 35.7459 29.8907H28.7117C26.1063 29.8907 23.9941 32.0028 23.9941 34.6083V34.841C23.9941 37.4465 26.1063 39.5586 28.7117 39.5586H35.7459C38.3513 39.5586 40.4634 37.4465 40.4634 34.841Z" fill="url(#paint19_radial_4_316)"/>
<path d="M37.6485 33.2848H29.1399C28.479 33.2848 27.9433 33.8205 27.9433 34.4813C27.9433 35.1422 28.479 35.6779 29.1399 35.6779H37.6485C38.3093 35.6779 38.845 35.1422 38.845 34.4813C38.845 33.8205 38.3093 33.2848 37.6485 33.2848Z" fill="url(#paint20_linear_4_316)"/>
<path d="M40.3894 27.4155V27.3944C40.3894 24.7889 38.2772 22.6768 35.6718 22.6768H28.7117C26.1063 22.6768 23.9941 24.7889 23.9941 27.3944V27.4155C23.9941 30.021 26.1063 32.1331 28.7117 32.1331H35.6718C38.2772 32.1331 40.3894 30.021 40.3894 27.4155Z" fill="url(#paint21_linear_4_316)"/>
<path d="M40.3894 27.4155V27.3944C40.3894 24.7889 38.2772 22.6768 35.6718 22.6768H28.7117C26.1063 22.6768 23.9941 24.7889 23.9941 27.3944V27.4155C23.9941 30.021 26.1063 32.1331 28.7117 32.1331H35.6718C38.2772 32.1331 40.3894 30.021 40.3894 27.4155Z" fill="url(#paint22_radial_4_316)"/>
<path d="M36.806 24.6618H29.2573C28.1312 24.6618 27.2184 25.5747 27.2184 26.7008V26.7008C27.2184 27.8269 28.1312 28.7398 29.2573 28.7398H36.806C37.9321 28.7398 38.845 27.8269 38.845 26.7008V26.7008C38.845 25.5747 37.9321 24.6618 36.806 24.6618Z" fill="url(#paint23_linear_4_316)"/>
<path d="M22.0029 0.92942C19.0588 0.92942 16.6719 3.31622 16.6719 6.26049V10.3981L16.6689 10.3967C16.6689 11.3086 16.5422 13.2756 15.8899 14.4874C15.1376 15.8855 13.7118 16.7401 12.5451 17.4395C12.1899 17.6525 11.8585 17.8512 11.5776 18.0464C13.1903 19.3381 16.4928 21.9192 16.5739 21.8584C16.6549 21.7977 20.3734 19.8236 22.2224 18.8442L22.1438 17.7248C25.0229 17.6501 27.3341 15.2926 27.3341 12.3955V6.26049C27.3341 3.31622 24.9472 0.92942 22.0029 0.92942Z" fill="url(#paint24_radial_4_316)"/>
<path d="M25.9714 4.86479C25.9714 3.80392 25.1114 2.94392 24.0506 2.94392C22.9897 2.94392 22.1297 3.80392 22.1297 4.86479V13.9877C22.1297 15.0486 22.9897 15.9086 24.0506 15.9086C25.1114 15.9086 25.9714 15.0486 25.9714 13.9877V4.86479Z" fill="url(#paint25_linear_4_316)"/>
</g>
<defs>
<linearGradient id="paint0_linear_4_316" x1="28.7448" y1="17.0812" x2="10.3359" y2="52.2128" gradientUnits="userSpaceOnUse">
<stop stop-color="#FFDDBE"/>
<stop offset="1" stop-color="#E7AFA8"/>
</linearGradient>
<radialGradient id="paint1_radial_4_316" cx="0" cy="0" r="1" gradientUnits="userSpaceOnUse" gradientTransform="translate(26.1956 3.2377) rotate(138.814) scale(6.00793 4.6876)">
<stop stop-color="#FFE6C7"/>
<stop offset="1" stop-color="#FFE6C7" stop-opacity="0"/>
</radialGradient>
<radialGradient id="paint2_radial_4_316" cx="0" cy="0" r="1" gradientUnits="userSpaceOnUse" gradientTransform="translate(13.6157 23.4701) rotate(133.564) scale(12.016 8.70456)">
<stop stop-color="#F2C0A5"/>
<stop offset="1" stop-color="#F2C0A5" stop-opacity="0"/>
</radialGradient>
<radialGradient id="paint3_radial_4_316" cx="0" cy="0" r="1" gradientUnits="userSpaceOnUse" gradientTransform="translate(29.0915 24.9142) rotate(135.794) scale(17.3283 10.6825)">
<stop stop-color="#DDA895"/>
<stop offset="1" stop-color="#DDA895" stop-opacity="0"/>
</radialGradient>
<radialGradient id="paint4_radial_4_316" cx="0" cy="0" r="1" gradientUnits="userSpaceOnUse" gradientTransform="translate(13.8215 52.65) rotate(-62.6117) scale(23.8985 42.4914)">
<stop stop-color="#C08494"/>
<stop offset="1" stop-color="#C08494" stop-opacity="0"/>
</radialGradient>
<radialGradient id="paint5_radial_4_316" cx="0" cy="0" r="1" gradientUnits="userSpaceOnUse" gradientTransform="translate(29.5667 31.3625) rotate(180) scale(25.1823 38.7566)">
<stop offset="0.863834" stop-color="#EDB29B" stop-opacity="0"/>
<stop offset="1" stop-color="#EDB29B"/>
</radialGradient>
<radialGradient id="paint6_radial_4_316" cx="0" cy="0" r="1" gradientUnits="userSpaceOnUse" gradientTransform="translate(26.5377 15.9831) rotate(38.8999) scale(2.53259 3.33523)">
<stop stop-color="#FFDBBA"/>
<stop offset="1" stop-color="#FFDBBA" stop-opacity="0"/>
</radialGradient>
<linearGradient id="paint7_linear_4_316" x1="19.7707" y1="47.9894" x2="19.7707" y2="42.4168" gradientUnits="userSpaceOnUse">
<stop stop-color="#B57895"/>
<stop offset="1" stop-color="#B57895" stop-opacity="0"/>
</linearGradient>
<linearGradient id="paint8_linear_4_316" x1="28.2137" y1="20.6024" x2="28.2137" y2="45.5154" gradientUnits="userSpaceOnUse">
<stop stop-color="#B5755F"/>
<stop offset="1" stop-color="#B3748D"/>
</linearGradient>
<linearGradient id="paint9_linear_4_316" x1="38.8451" y1="20.0114" x2="25.6413" y2="20.0114" gradientUnits="userSpaceOnUse">
<stop stop-color="#FFD8BA"/>
<stop offset="1" stop-color="#ECB9A3"/>
</linearGradient>
<radialGradient id="paint10_radial_4_316" cx="0" cy="0" r="1" gradientUnits="userSpaceOnUse" gradientTransform="translate(25.5191 22.8468) scale(10.7414 4.30836)">
<stop stop-color="#DFA995"/>
<stop offset="1" stop-color="#DFA995" stop-opacity="0"/>
</radialGradient>
<radialGradient id="paint11_radial_4_316" cx="0" cy="0" r="1" gradientUnits="userSpaceOnUse" gradientTransform="translate(26.5693 24.1933) rotate(-142.633) scale(3.76275 2.51868)">
<stop stop-color="#CA8C6F"/>
<stop offset="1" stop-color="#CA8C6F" stop-opacity="0"/>
</radialGradient>
<linearGradient id="paint12_linear_4_316" x1="36.7639" y1="18.7242" x2="26.0422" y2="18.7242" gradientUnits="userSpaceOnUse">
<stop stop-color="#FFE7CA"/>
<stop offset="1" stop-color="#FFE7CA" stop-opacity="0"/>
</linearGradient>
<linearGradient id="paint13_linear_4_316" x1="37.1001" y1="41.4203" x2="23.9941" y2="41.4203" gradientUnits="userSpaceOnUse">
<stop stop-color="#FECEB7"/>
<stop offset="1" stop-color="#DAA59E"/>
</linearGradient>
<radialGradient id="paint14_radial_4_316" cx="0" cy="0" r="1" gradientUnits="userSpaceOnUse" gradientTransform="translate(28.132 46.011) scale(13.3055 2.52255)">
<stop stop-color="#BF8196"/>
<stop offset="1" stop-color="#BF8196" stop-opacity="0"/>
</radialGradient>
<radialGradient id="paint15_radial_4_316" cx="0" cy="0" r="1" gradientUnits="userSpaceOnUse" gradientTransform="translate(27.449 38.4415) scale(10.9095 2.45286)">
<stop stop-color="#B57767"/>
<stop offset="1" stop-color="#B57767" stop-opacity="0"/>
</radialGradient>
<linearGradient id="paint16_linear_4_316" x1="36.8284" y1="40.2147" x2="27.4443" y2="40.2147" gradientUnits="userSpaceOnUse">
<stop stop-color="#FFD2C1"/>
<stop offset="1" stop-color="#FFD2C1" stop-opacity="0"/>
</linearGradient>
<linearGradient id="paint17_linear_4_316" x1="39.0207" y1="34.7247" x2="23.9941" y2="34.7247" gradientUnits="userSpaceOnUse">
<stop stop-color="#FFDDC1"/>
<stop offset="1" stop-color="#E5B1A3"/>
</linearGradient>
<radialGradient id="paint18_radial_4_316" cx="0" cy="0" r="1" gradientUnits="userSpaceOnUse" gradientTransform="translate(27.3305 39.5586) scale(14.9415 5.31522)">
<stop offset="0.139674" stop-color="#CA8E96"/>
<stop offset="1" stop-color="#CA8E96" stop-opacity="0"/>
</radialGradient>
<radialGradient id="paint19_radial_4_316" cx="0" cy="0" r="1" gradientUnits="userSpaceOnUse" gradientTransform="translate(28.661 30.7359) scale(7.70558 3.128)">
<stop stop-color="#BB7E6C"/>
<stop offset="1" stop-color="#BB7E6C" stop-opacity="0"/>
</radialGradient>
<linearGradient id="paint20_linear_4_316" x1="38.2788" y1="33.941" x2="26.5276" y2="33.941" gradientUnits="userSpaceOnUse">
<stop stop-color="#FFE2C9"/>
<stop offset="1" stop-color="#FFE2C9" stop-opacity="0"/>
</linearGradient>
<linearGradient id="paint21_linear_4_316" x1="40.3894" y1="27.4051" x2="23.9941" y2="27.4051" gradientUnits="userSpaceOnUse">
<stop stop-color="#FFDFBF"/>
<stop offset="1" stop-color="#E2AE9C"/>
</linearGradient>
<radialGradient id="paint22_radial_4_316" cx="0" cy="0" r="1" gradientUnits="userSpaceOnUse" gradientTransform="translate(28.1581 32.1332) scale(13.1208 6.09025)">
<stop stop-color="#D39797"/>
<stop offset="1" stop-color="#D39797" stop-opacity="0"/>
</radialGradient>
<linearGradient id="paint23_linear_4_316" x1="38.2411" y1="25.7799" x2="25.7085" y2="25.7799" gradientUnits="userSpaceOnUse">
<stop stop-color="#FFE8CA"/>
<stop offset="1" stop-color="#FFE8CA" stop-opacity="0"/>
</linearGradient>
<radialGradient id="paint24_radial_4_316" cx="0" cy="0" r="1" gradientUnits="userSpaceOnUse" gradientTransform="translate(16.7904 7.52927) rotate(90) scale(10.2599 4.04926)">
<stop stop-color="#E0A892"/>
<stop offset="1" stop-color="#E0A892" stop-opacity="0"/>
</radialGradient>
<linearGradient id="paint25_linear_4_316" x1="25.7719" y1="6.4987" x2="21.6307" y2="6.4987" gradientUnits="userSpaceOnUse">
<stop stop-color="#FFE7CA"/>
<stop offset="1" stop-color="#FFE7CA" stop-opacity="0"/>
</linearGradient>
<clipPath id="clip0_4_316">
<rect width="46.08" height="46.08" fill="white"/>
</clipPath>
</defs>
</svg>
