<svg width="101" height="23" viewBox="0 0 101 23" fill="none" xmlns="http://www.w3.org/2000/svg">
<path d="M15.9967 12.0424C16.0078 11.1744 16.2384 10.3234 16.6669 9.56849C17.0953 8.81358 17.7078 8.1793 18.4472 7.72469C17.9775 7.05379 17.3578 6.50167 16.6373 6.11217C15.9168 5.72268 15.1155 5.50654 14.2969 5.48093C12.5506 5.29763 10.8577 6.52585 9.96786 6.52585C9.06079 6.52585 7.69073 5.49913 6.21539 5.52948C5.2611 5.56031 4.33107 5.83781 3.51592 6.33494C2.70077 6.83207 2.0283 7.53188 1.56402 8.36618C-0.447094 11.8482 1.05302 16.9656 2.97953 19.7802C3.94341 21.1584 5.0699 22.6979 6.54391 22.6433C7.98631 22.5835 8.52502 21.7236 10.2661 21.7236C11.991 21.7236 12.4965 22.6433 14.0004 22.6086C15.5481 22.5835 16.5233 21.2243 17.4534 19.833C18.1459 18.851 18.6788 17.7656 19.0324 16.6171C18.1332 16.2368 17.3658 15.6002 16.826 14.7867C16.2861 13.9732 15.9977 13.0187 15.9967 12.0424Z" fill="white"/>
<path d="M13.1561 3.62989C14 2.61682 14.4158 1.31468 14.3151 0C13.0258 0.135415 11.8349 0.751614 10.9795 1.72582C10.5614 2.20174 10.2411 2.75542 10.037 3.35521C9.83293 3.95499 9.74906 4.58911 9.79021 5.22132C10.4351 5.22796 11.0731 5.08818 11.6561 4.81252C12.2391 4.53686 12.752 4.1325 13.1561 3.62989V3.62989Z" fill="white"/>
<path d="M33.3018 13.2686H28.5684L27.4316 16.625H25.4268L29.9102 4.20703H31.9932L36.4766 16.625H34.4375L33.3018 13.2686ZM29.0586 11.7198H32.8106L30.961 6.27248H30.9092L29.0586 11.7198Z" fill="white"/>
<path d="M46.1592 12.0987C46.1592 14.9122 44.6533 16.7198 42.3809 16.7198C41.8052 16.7499 41.2327 16.6173 40.7289 16.3372C40.2251 16.057 39.8104 15.6407 39.5323 15.1358H39.4893V19.6202H37.6309V7.57138H39.4297V9.07723H39.4639C39.7548 8.57477 40.1766 8.16058 40.6842 7.87873C41.1918 7.59689 41.7664 7.45793 42.3467 7.47664C44.6446 7.47665 46.1592 9.29305 46.1592 12.0987ZM44.249 12.0987C44.249 10.2657 43.3018 9.06063 41.8565 9.06063C40.4365 9.06063 39.4815 10.2911 39.4815 12.0987C39.4815 13.9229 40.4365 15.1446 41.8565 15.1446C43.3018 15.1446 44.249 13.9483 44.249 12.0987H44.249Z" fill="white"/>
<path d="M56.1245 12.0987C56.1245 14.9122 54.6182 16.7198 52.3457 16.7198C51.7701 16.7499 51.1976 16.6173 50.6938 16.3372C50.19 16.057 49.7753 15.6407 49.4971 15.1358H49.4541V19.6202H47.5957V7.57138H49.3945V9.07723H49.4287C49.7197 8.57477 50.1414 8.16058 50.649 7.87873C51.1567 7.59689 51.7312 7.45793 52.3115 7.47664C54.6094 7.47665 56.1245 9.29305 56.1245 12.0987ZM54.2139 12.0987C54.2139 10.2657 53.2666 9.06063 51.8213 9.06063C50.4014 9.06063 49.4463 10.2911 49.4463 12.0987C49.4463 13.9229 50.4014 15.1446 51.8213 15.1446C53.2666 15.1446 54.2139 13.9483 54.2139 12.0987V12.0987Z" fill="white"/>
<path d="M62.7095 13.1651C62.8472 14.3965 64.0435 15.2051 65.6783 15.2051C67.2447 15.2051 68.3716 14.3965 68.3716 13.2861C68.3716 12.3223 67.6919 11.7451 66.0826 11.3496L64.4732 10.9619C62.1929 10.4111 61.1343 9.34473 61.1343 7.61426C61.1343 5.47168 63.0015 4 65.6519 4C68.2769 4 70.0757 5.47168 70.1363 7.61426H68.2603C68.148 6.375 67.1236 5.62696 65.6265 5.62696C64.1294 5.62696 63.105 6.3838 63.105 7.48536C63.105 8.36329 63.7593 8.87989 65.3599 9.27536L66.7281 9.6113C69.2759 10.2138 70.3335 11.2373 70.3335 13.0537C70.3335 15.3769 68.4839 16.832 65.5405 16.832C62.7866 16.832 60.9272 15.4111 60.8071 13.165L62.7095 13.1651Z" fill="white"/>
<path d="M74.3462 5.42871V7.57129H76.0679V9.04297H74.3462V14.0342C74.3462 14.8096 74.6909 15.1709 75.4477 15.1709C75.6521 15.1673 75.8562 15.153 76.0591 15.1279V16.5908C75.7188 16.6544 75.3729 16.6832 75.0268 16.6767C73.1938 16.6767 72.479 15.9882 72.479 14.2324V9.04297H71.1626V7.57129H72.479V5.42871H74.3462Z" fill="white"/>
<path d="M77.064 12.0986C77.064 9.25 78.7417 7.45996 81.3579 7.45996C83.9829 7.45996 85.6528 9.24996 85.6528 12.0986C85.6528 14.9551 83.9917 16.7373 81.3579 16.7373C78.7251 16.7373 77.064 14.9551 77.064 12.0986ZM83.7593 12.0986C83.7593 10.1445 82.8638 8.99121 81.3579 8.99121C79.852 8.99121 78.9565 10.1533 78.9565 12.0986C78.9565 14.0605 79.852 15.2051 81.3579 15.2051C82.8638 15.2051 83.7593 14.0605 83.7593 12.0986H83.7593Z" fill="white"/>
<path d="M87.1851 7.57129H88.9575V9.11229H89.0005C89.1205 8.631 89.4024 8.20567 89.799 7.90779C90.1956 7.6099 90.6826 7.45762 91.1783 7.47655C91.3924 7.4758 91.606 7.49906 91.815 7.54589V9.28417C91.5446 9.20155 91.2626 9.16362 90.98 9.17187C90.71 9.16092 90.4409 9.20852 90.191 9.31141C89.9412 9.41429 89.7166 9.57002 89.5326 9.76792C89.3486 9.96581 89.2096 10.2012 89.1252 10.4578C89.0408 10.7145 89.0129 10.9864 89.0435 11.2549V16.625H87.1851L87.1851 7.57129Z" fill="white"/>
<path d="M100.383 13.9658C100.133 15.6094 98.5327 16.7373 96.4849 16.7373C93.8511 16.7373 92.2163 14.9726 92.2163 12.1416C92.2163 9.30176 93.8599 7.45996 96.4067 7.45996C98.9116 7.45996 100.487 9.18066 100.487 11.9258V12.5625H94.0923V12.6748C94.0628 13.008 94.1045 13.3437 94.2147 13.6595C94.3248 13.9753 94.501 14.2641 94.7313 14.5067C94.9617 14.7492 95.241 14.94 95.5507 15.0663C95.8605 15.1926 96.1936 15.2516 96.5278 15.2393C96.967 15.2804 97.4077 15.1787 97.7844 14.9492C98.1611 14.7198 98.4537 14.3749 98.6187 13.9658L100.383 13.9658ZM94.1011 11.2637H98.6274C98.6441 10.9641 98.5987 10.6643 98.494 10.3831C98.3893 10.1018 98.2277 9.84531 98.0191 9.62954C97.8106 9.41378 97.5598 9.24344 97.2823 9.12922C97.0048 9.01501 96.7067 8.95938 96.4067 8.96582C96.1041 8.96401 95.8041 9.02216 95.5241 9.1369C95.244 9.25164 94.9895 9.42071 94.7751 9.63434C94.5608 9.84798 94.3908 10.1019 94.2751 10.3816C94.1595 10.6613 94.1003 10.961 94.1011 11.2637V11.2637Z" fill="white"/>
</svg>
