<svg width="120" height="120" viewBox="0 0 120 120" fill="none" xmlns="http://www.w3.org/2000/svg">
<path d="M58.5091 99.7098C59.1624 99.7098 59.8324 99.5631 60.5191 99.2698C61.2057 98.9765 61.7607 98.6181 62.1841 98.1948L101.164 59.2098C102.421 57.9531 103.391 56.6698 104.074 55.3598C104.754 54.0431 105.094 52.5998 105.094 51.0298C105.094 49.4398 104.754 47.8965 104.074 46.3998C103.391 44.8998 102.421 43.5331 101.164 42.2998L82.4141 23.5498C81.1774 22.2931 79.9057 21.3715 78.5991 20.7848C77.2957 20.1981 75.8491 19.9048 74.2591 19.9048C72.6891 19.9048 71.2307 20.1981 69.8841 20.7848C68.5374 21.3715 67.2691 22.2915 66.0791 23.5448L61.7191 27.9048L70.9691 37.1798C71.9624 38.1565 72.7041 39.2665 73.1941 40.5098C73.6807 41.7531 73.9241 43.0148 73.9241 44.2948C73.9241 46.8981 73.0724 49.0515 71.3691 50.7548C69.6657 52.4581 67.5141 53.3081 64.9141 53.3048C63.6307 53.3048 62.3791 53.1098 61.1591 52.7198C59.9391 52.3298 58.8407 51.6465 57.8641 50.6698L48.2991 41.1398L26.7091 62.7248C26.2057 63.2315 25.8274 63.8065 25.5741 64.4498C25.3207 65.0931 25.1941 65.7431 25.1941 66.3998C25.1941 67.5798 25.5724 68.5515 26.3291 69.3148C27.0824 70.0815 28.0491 70.4648 29.2291 70.4648C29.8824 70.4648 30.5524 70.3181 31.2391 70.0248C31.9257 69.7281 32.4807 69.3681 32.9041 68.9448L48.7491 53.0998L52.2891 56.6398L36.4691 72.4898C35.9624 72.9931 35.5824 73.5665 35.3291 74.2098C35.0791 74.8565 34.9541 75.5065 34.9541 76.1598C34.9541 77.2765 35.3474 78.2281 36.1341 79.0148C36.9207 79.8015 37.8724 80.1965 38.9891 80.1998C39.6424 80.1998 40.3124 80.0515 40.9991 79.7548C41.6857 79.4581 42.2407 79.0998 42.6641 78.6798L59.6641 61.7098L63.2041 65.2448L46.2291 82.2448C45.7857 82.6681 45.4224 83.2231 45.1391 83.9098C44.8524 84.5965 44.7091 85.2665 44.7091 85.9198C44.7091 87.0331 45.1041 87.9831 45.8941 88.7698C46.6807 89.5631 47.6324 89.9598 48.7491 89.9598C49.4024 89.9598 50.0524 89.8331 50.6991 89.5798C51.3457 89.3265 51.9191 88.9465 52.4191 88.4398L69.4191 71.4648L72.9591 75.0048L55.9591 92.0048C55.4557 92.5114 55.0774 93.1198 54.8241 93.8298C54.5707 94.5398 54.4441 95.1881 54.4441 95.7748C54.4441 96.9548 54.8591 97.9064 55.6891 98.6298C56.5191 99.3531 57.4591 99.7148 58.5091 99.7148M58.4791 104.715C55.9091 104.715 53.7091 103.775 51.8791 101.895C50.0491 100.011 49.2457 97.6881 49.4691 94.9248C46.6357 94.9581 44.2774 94.1131 42.3941 92.3898C40.5107 90.6631 39.6157 88.2565 39.7091 85.1698C36.6224 85.2031 34.1891 84.3198 32.4091 82.5198C30.6291 80.7198 29.8191 78.3498 29.9791 75.4098C27.1991 75.4431 24.8724 74.6598 22.9991 73.0598C21.1291 71.4665 20.1941 69.2465 20.1941 66.3998C20.1941 65.1165 20.4424 63.8331 20.9391 62.5498C21.4357 61.2631 22.1691 60.1331 23.1391 59.1598L48.2991 34.0298L61.2091 46.9398C61.6324 47.3831 62.1557 47.7481 62.7791 48.0348C63.4024 48.3215 64.1041 48.4631 64.8841 48.4598C65.9541 48.4598 66.8991 48.0865 67.7191 47.3398C68.5391 46.5931 68.9507 45.6198 68.9541 44.4198C68.9541 43.6398 68.8107 42.9398 68.5241 42.3198C68.2374 41.6965 67.8741 41.1731 67.4341 40.7498L50.2341 23.5498C48.9941 22.2931 47.7057 21.3715 46.3691 20.7848C45.0324 20.1981 43.5691 19.9048 41.9791 19.9048C40.4091 19.9048 38.9824 20.1981 37.6991 20.7848C36.4191 21.3715 35.1507 22.2931 33.8941 23.5498L18.6741 38.7998C17.6007 39.8665 16.7341 41.1415 16.0741 42.6248C15.4141 44.1048 15.0641 45.6331 15.0241 47.2098C14.9907 48.3398 15.0874 49.4248 15.3141 50.4648C15.5407 51.5048 15.9074 52.4848 16.4141 53.4048L12.6241 57.1948C11.7841 55.8548 11.1274 54.3114 10.6541 52.5648C10.1807 50.8181 9.9624 49.0348 9.99907 47.2148C10.0391 44.9415 10.4941 42.7664 11.3641 40.6898C12.2341 38.6131 13.4807 36.7615 15.1041 35.1348L30.2291 20.0098C31.9724 18.2831 33.8174 16.9998 35.7641 16.1598C37.7107 15.3231 39.8157 14.9048 42.0791 14.9048C44.3424 14.9048 46.4291 15.3248 48.3391 16.1648C50.2524 17.0015 52.0724 18.2831 53.7991 20.0098L58.1491 24.3648L62.5091 20.0098C64.2524 18.2831 66.0807 16.9998 67.9941 16.1598C69.9074 15.3231 71.9957 14.9048 74.2591 14.9048C76.5224 14.9048 78.6274 15.3248 80.5741 16.1648C82.5174 17.0015 84.3507 18.2831 86.0741 20.0098L104.704 38.6348C106.427 40.3581 107.757 42.2931 108.694 44.4398C109.631 46.5864 110.097 48.7915 110.094 51.0548C110.094 53.3215 109.627 55.4098 108.694 57.3198C107.761 59.2298 106.431 61.0498 104.704 62.7798L65.7191 101.73C64.6824 102.77 63.5524 103.526 62.3291 104C61.1091 104.473 59.8257 104.71 58.4791 104.71" fill="black"/>
</svg>
