<svg width="14" height="14" viewBox="0 0 14 14" fill="none" xmlns="http://www.w3.org/2000/svg">
<g clip-path="url(#clip0_105_4)">
<path fill-rule="evenodd" clip-rule="evenodd" d="M1.70757 0.296337C1.51897 0.114179 1.26637 0.0133844 1.00417 0.0156628C0.741971 0.0179412 0.491159 0.12311 0.305751 0.308518C0.120343 0.493926 0.0151738 0.744739 0.0128954 1.00694C0.010617 1.26913 0.111411 1.52173 0.293569 1.71034L5.58657 7.00334L0.293569 12.2963C0.198059 12.3886 0.121877 12.4989 0.0694681 12.6209C0.0170591 12.7429 -0.0105272 12.8742 -0.011681 13.0069C-0.0128348 13.1397 0.0124669 13.2714 0.0627478 13.3943C0.113029 13.5172 0.187282 13.6288 0.281174 13.7227C0.375067 13.8166 0.486719 13.8909 0.609615 13.9412C0.732512 13.9914 0.864191 14.0167 0.996971 14.0156C1.12975 14.0144 1.26097 13.9868 1.38297 13.9344C1.50498 13.882 1.61532 13.8058 1.70757 13.7103L7.00057 8.41734L12.2936 13.7103C12.4822 13.8925 12.7348 13.9933 12.997 13.991C13.2592 13.9887 13.51 13.8836 13.6954 13.6982C13.8808 13.5127 13.986 13.2619 13.9882 12.9997C13.9905 12.7375 13.8897 12.4849 13.7076 12.2963L8.41457 7.00334L13.7076 1.71034C13.8897 1.52173 13.9905 1.26913 13.9882 1.00694C13.986 0.744739 13.8808 0.493926 13.6954 0.308518C13.51 0.12311 13.2592 0.0179412 12.997 0.0156628C12.7348 0.0133844 12.4822 0.114179 12.2936 0.296337L7.00057 5.58934L1.70757 0.296337Z" fill="black"/>
</g>
<defs>
<clipPath id="clip0_105_4">
<rect width="14" height="14" fill="white"/>
</clipPath>
</defs>
</svg>
