<svg width="117" height="26" viewBox="0 0 117 26" fill="none" xmlns="http://www.w3.org/2000/svg">
<path fill-rule="evenodd" clip-rule="evenodd" d="M58.8526 8.72319C56.5056 8.72319 54.6032 10.5112 54.6032 12.9776C54.6032 15.4214 56.518 17.2319 58.8526 17.2319C61.1995 17.2319 63.1019 15.4314 63.1019 12.9776C63.1019 10.5112 61.1995 8.72319 58.8526 8.72319ZM58.8526 15.5461C57.5686 15.5461 56.4634 14.4788 56.4634 12.9676C56.4634 11.4339 57.5711 10.389 58.8526 10.389C60.1366 10.389 61.2417 11.4339 61.2417 12.9676C61.2442 14.4888 60.1366 15.5461 58.8526 15.5461ZM49.5815 8.72319C47.2346 8.72319 45.3322 10.5112 45.3322 12.9776C45.3322 15.4214 47.247 17.2319 49.5815 17.2319C51.9285 17.2319 53.8309 15.4314 53.8309 12.9776C53.8309 10.5112 51.926 8.72319 49.5815 8.72319ZM49.5815 15.5461C48.2975 15.5461 47.1924 14.4788 47.1924 12.9676C47.1924 11.4339 48.3 10.389 49.5815 10.389C50.8655 10.389 51.9707 11.4339 51.9707 12.9676C51.9707 14.4888 50.8655 15.5461 49.5815 15.5461ZM38.5496 10.0224V11.8229H42.8536C42.722 12.8329 42.3892 13.5786 41.8801 14.0898C41.2492 14.7232 40.2757 15.4115 38.5596 15.4115C35.9146 15.4115 33.8458 13.2668 33.8458 10.611C33.8458 7.95511 35.9146 5.81047 38.5596 5.81047C39.9876 5.81047 41.0282 6.37656 41.8006 7.09975L43.0722 5.82294C41.9993 4.79052 40.5712 4 38.5695 4C34.9411 4 31.8962 6.96758 31.8962 10.601C31.8962 14.2444 34.9386 17.202 38.5695 17.202C40.529 17.202 41.9993 16.5586 43.1616 15.3466C44.3462 14.1571 44.7212 12.4788 44.7212 11.1247C44.7212 10.7032 44.689 10.3242 44.6219 10.0025H38.5472C38.5496 10 38.5496 10.0224 38.5496 10.0224ZM83.673 11.4239C83.3179 10.4688 82.245 8.71322 80.0446 8.71322C77.8641 8.71322 76.0511 10.4364 76.0511 12.9676C76.0511 15.3566 77.8442 17.2219 80.2557 17.2219C82.1929 17.2219 83.3204 16.0324 83.7848 15.3342L82.3468 14.3666C81.87 15.0773 81.2069 15.5436 80.2656 15.5436C79.3144 15.5436 78.6488 15.1097 78.2068 14.2544L83.8717 11.8978C83.8717 11.9002 83.673 11.4239 83.673 11.4239ZM77.8963 12.8454C77.8516 11.202 79.1679 10.3666 80.1092 10.3666C80.8518 10.3666 81.4702 10.7332 81.6813 11.2668L77.8963 12.8454ZM73.2943 16.9676H75.1545V4.46883H73.2943V16.9676ZM70.2396 9.66833H70.1725C69.7528 9.16708 68.9556 8.71322 67.9373 8.71322C65.8239 8.71322 63.8768 10.581 63.8768 12.98C63.8768 15.3691 65.8139 17.2145 67.9373 17.2145C68.9432 17.2145 69.7528 16.7581 70.1725 16.2469H70.2396V16.8579C70.2396 18.4813 69.3753 19.3566 67.9821 19.3566C66.8421 19.3566 66.1343 18.5337 65.8462 17.8454L64.2294 18.5237C64.6939 19.6459 65.9331 21.0349 67.9796 21.0349C70.1601 21.0349 72.0079 19.7456 72.0079 16.601V8.96758H70.2495V9.66833C70.252 9.66833 70.2396 9.66833 70.2396 9.66833ZM68.1037 15.5461C66.8198 15.5461 65.7469 14.4688 65.7469 12.98C65.7469 11.4788 66.8198 10.3915 68.1037 10.3915C69.3753 10.3915 70.3613 11.4913 70.3613 12.98C70.3737 14.4688 69.3778 15.5461 68.1037 15.5461ZM92.3828 4.46883H87.9348V16.9676H89.795V12.2344H92.3853C94.4442 12.2344 96.4682 10.7357 96.4682 8.35661C96.4682 5.97756 94.4516 4.46883 92.3828 4.46883ZM92.4375 10.4888H89.7925V6.1995H92.4375C93.8307 6.1995 94.618 7.35411 94.618 8.34414C94.618 9.32419 93.8208 10.4888 92.4375 10.4888ZM103.924 8.70075C102.573 8.70075 101.18 9.30174 100.603 10.611L102.252 11.2993C102.608 10.611 103.258 10.3766 103.946 10.3766C104.91 10.3766 105.883 10.9551 105.906 11.9875V12.1197C105.573 11.9302 104.843 11.6409 103.969 11.6409C102.188 11.6409 100.382 12.6185 100.382 14.4514C100.382 16.1297 101.843 17.207 103.469 17.207C104.719 17.207 105.406 16.6409 105.836 15.985H105.903V16.9526H107.696V12.1646C107.696 9.93516 106.047 8.70075 103.924 8.70075ZM103.69 15.5461C103.082 15.5461 102.23 15.2469 102.23 14.4788C102.23 13.5112 103.293 13.1446 104.199 13.1446C105.019 13.1446 105.406 13.3217 105.893 13.5661C105.759 14.6883 104.815 15.5362 103.69 15.5461ZM114.238 8.96758L112.102 14.389H112.035L109.822 8.96758H107.82L111.141 16.5461L109.249 20.7581H111.186L116.294 8.96758H114.238ZM97.4939 16.9676H99.3541V4.46883H97.4939V16.9676Z" fill="white"/>
<path fill-rule="evenodd" clip-rule="evenodd" d="M1.39113 0.533641C1.10304 0.845361 0.936646 1.32167 0.936646 1.94511V24.0573C0.936646 24.6808 1.10304 25.1571 1.40107 25.4563L1.47806 25.5237L13.8163 13.1346V12.8578L1.46812 0.466309L1.39113 0.533641Z" fill="url(#paint0_linear_205_1138)"/>
<path fill-rule="evenodd" clip-rule="evenodd" d="M17.9214 17.2768L13.8062 13.1446V12.8553L17.9214 8.72314L18.0108 8.77801L22.8786 11.5561C24.2718 12.3441 24.2718 13.6458 22.8786 14.4438L18.0108 17.2219L17.9214 17.2768Z" fill="url(#paint1_linear_205_1138)"/>
<path fill-rule="evenodd" clip-rule="evenodd" d="M18.0109 17.2219L13.8063 13L1.39111 25.4663C1.8456 25.9551 2.60805 26.01 3.4599 25.5337L18.0109 17.2219Z" fill="url(#paint2_linear_205_1138)"/>
<path fill-rule="evenodd" clip-rule="evenodd" d="M18.0109 8.77807L3.4599 0.478816C2.60805 -0.00996179 1.84312 0.0573702 1.39111 0.546148L13.8063 13L18.0109 8.77807Z" fill="url(#paint3_linear_205_1138)"/>
<path opacity="0.2" fill-rule="evenodd" clip-rule="evenodd" d="M17.9216 17.1322L3.4698 25.3766C2.66264 25.8429 1.94241 25.8105 1.47799 25.3865L1.401 25.4638L1.47799 25.5312C1.94241 25.9526 2.66264 25.9875 3.4698 25.5212L18.0209 17.222L17.9216 17.1322Z" fill="black"/>
<path opacity="0.12" fill-rule="evenodd" clip-rule="evenodd" d="M22.8786 14.2993L17.9091 17.1322L17.9985 17.2219L22.8662 14.4439C23.5641 14.0449 23.9068 13.5212 23.9068 13C23.8646 13.4788 23.5094 13.9327 22.8786 14.2993Z" fill="black"/>
<path opacity="0.25" fill-rule="evenodd" clip-rule="evenodd" d="M3.45992 0.623417L22.8787 11.7007C23.5095 12.0573 23.8646 12.5237 23.9193 13C23.9193 12.4788 23.5766 11.9551 22.8787 11.5561L3.45992 0.478778C2.06665 -0.321721 0.936646 0.346609 0.936646 1.94511V2.08975C0.936646 0.488753 2.06665 -0.167107 3.45992 0.623417Z" fill="white"/>
<defs>
<linearGradient id="paint0_linear_205_1138" x1="12.7095" y1="1.70654" x2="-7.06486" y2="6.95384" gradientUnits="userSpaceOnUse">
<stop stop-color="#00A0FF"/>
<stop offset="0.00657" stop-color="#00A1FF"/>
<stop offset="0.2601" stop-color="#00BEFF"/>
<stop offset="0.5122" stop-color="#00D2FF"/>
<stop offset="0.7604" stop-color="#00DFFF"/>
<stop offset="1" stop-color="#00E3FF"/>
</linearGradient>
<linearGradient id="paint1_linear_205_1138" x1="24.6955" y1="13" x2="0.59777" y2="13" gradientUnits="userSpaceOnUse">
<stop stop-color="#FFE000"/>
<stop offset="0.4087" stop-color="#FFBD00"/>
<stop offset="0.7754" stop-color="#FFA500"/>
<stop offset="1" stop-color="#FF9C00"/>
</linearGradient>
<linearGradient id="paint2_linear_205_1138" x1="15.7246" y1="15.2973" x2="-0.238153" y2="42.0538" gradientUnits="userSpaceOnUse">
<stop stop-color="#FF3A44"/>
<stop offset="1" stop-color="#C31162"/>
</linearGradient>
<linearGradient id="paint3_linear_205_1138" x1="-1.73517" y1="-6.82119" x2="5.38649" y2="5.1287" gradientUnits="userSpaceOnUse">
<stop stop-color="#32A071"/>
<stop offset="0.0685" stop-color="#2DA771"/>
<stop offset="0.4762" stop-color="#15CF74"/>
<stop offset="0.8009" stop-color="#06E775"/>
<stop offset="1" stop-color="#00F076"/>
</linearGradient>
</defs>
</svg>
