<svg width="92" height="92" viewBox="0 0 92 92" fill="none" xmlns="http://www.w3.org/2000/svg">
<path d="M36.5919 35.6652C42.6102 29.2113 41.9449 18.1205 33.1277 17.7607C27.9768 17.5506 23.2629 19.3844 20.023 22.8588C16.7831 26.3332 15.2826 31.1635 15.8515 36.2872C16.8254 45.0578 27.9356 44.9479 33.954 38.494L35.2729 37.0796L36.5919 35.6652Z" fill="url(#paint0_linear_100_313)"/>
<path d="M42.3489 71.1935C31.7777 61.6751 30.9242 45.3893 40.4425 34.8181L50.2522 23.9234C56.0822 17.4485 66.0572 16.9257 72.5321 22.7557C79.007 28.5857 79.5297 38.5608 73.6997 45.0356L50.5333 70.7646C48.3917 73.1431 44.7274 73.3351 42.3489 71.1935Z" fill="url(#paint1_linear_100_313)"/>
<defs>
<linearGradient id="paint0_linear_100_313" x1="20.023" y1="22.8588" x2="50.5229" y2="51.3004" gradientUnits="userSpaceOnUse">
<stop stop-color="#FF0A0A"/>
<stop offset="1" stop-color="#F8898E"/>
</linearGradient>
<linearGradient id="paint1_linear_100_313" x1="42.0082" y1="33.0793" x2="65.4557" y2="54.1916" gradientUnits="userSpaceOnUse">
<stop stop-color="#FF0A0A"/>
<stop offset="1" stop-color="#F8898E"/>
</linearGradient>
</defs>
</svg>
