<svg width="67" height="67" viewBox="0 0 67 67" fill="none" xmlns="http://www.w3.org/2000/svg">
<path d="M33.9299 11.1805C46.3379 11.1805 56.3699 21.2125 56.3699 33.6205C56.3699 46.0285 46.3379 56.0605 33.9299 56.0605C21.5219 56.0605 11.4899 46.0285 11.4899 33.6205C11.4899 21.2125 21.5219 11.1805 33.9299 11.1805ZM33.9299 53.4205C44.8859 53.4205 53.7299 44.5765 53.7299 33.6205C53.7299 22.6645 44.8859 13.8205 33.9299 13.8205C22.9739 13.8205 14.1299 22.6645 14.1299 33.6205C14.1299 44.5765 22.9739 53.4205 33.9299 53.4205Z" fill="#FB5457"/>
<path d="M22.0501 31.3766L33.0061 42.3326L43.9621 31.3766L45.8101 33.2246L33.0061 46.0286L20.2021 33.2246L22.0501 31.3766Z" fill="#FB5457"/>
<path d="M35.25 44.1807H32.61V21.7407H35.25V44.1807Z" fill="#FB5457"/>
</svg>
