<svg width="120" height="120" viewBox="0 0 120 120" fill="none" xmlns="http://www.w3.org/2000/svg">
<path d="M86.2651 99.585C95.5361 93.443 102.358 84.2429 105.543 73.5877C108.727 62.9324 108.072 51.4976 103.691 41.2758C99.3105 31.0541 91.4822 22.6933 81.5704 17.6505C71.6585 12.6078 60.2915 11.2026 49.4501 13.68M86.2701 85V99.58L102.5 99.585M33.6101 20.5C24.3658 26.663 17.5745 35.8715 14.4173 46.5238C11.26 57.1761 11.9367 68.598 16.3296 78.803C20.7226 89.008 28.5537 97.3502 38.461 102.379C48.3683 107.407 59.7247 108.803 70.5551 106.325M33.6101 20.5V35M33.6101 20.5H17.5001" stroke="black" stroke-width="5" stroke-linecap="round" stroke-linejoin="round"/>
<path d="M62.5 35L45 60H75L57.5 85" stroke="black" stroke-width="5" stroke-linecap="round" stroke-linejoin="round"/>
</svg>
