<svg width="120" height="120" viewBox="0 0 120 120" fill="none" xmlns="http://www.w3.org/2000/svg">
<path d="M70.8459 67.4795C67.8682 70.8738 64.2425 73.651 60.1616 75.6644V87.2358C60.1616 88.2588 59.7552 89.2399 59.0319 89.9632C58.3085 90.6866 57.3274 91.093 56.3045 91.093H33.1616C32.1386 91.093 31.1576 90.6866 30.4342 89.9632C29.7108 89.2399 29.3045 88.2588 29.3045 87.2358V75.6644C21.1763 71.6072 14.9624 64.5254 11.9963 55.9388C9.03013 47.3522 9.54815 37.945 13.4391 29.7359C17.3301 21.5269 24.284 15.1702 32.8085 12.03C41.333 8.88981 50.7488 9.21634 59.0353 12.9395M29.3045 110.14H60.1616" stroke="black" stroke-width="4.5" stroke-linecap="round" stroke-linejoin="round"/>
<path d="M63.0435 36.3462C60.3358 35.8756 60.3358 31.9876 63.0435 31.5171C67.8362 30.6788 72.2713 28.4342 75.7851 25.0688C79.2988 21.7034 81.7325 17.3692 82.7766 12.6171L82.9386 11.8611C83.5249 9.18422 87.3358 9.16879 87.9452 11.8379L88.1458 12.7096C89.2233 17.4433 91.6769 21.7526 95.1978 25.095C98.7187 28.4375 103.15 30.6638 107.933 31.4939C110.656 31.9722 110.656 35.8756 107.933 36.3539C103.151 37.1854 98.7218 39.4124 95.2024 42.7547C91.6829 46.0971 89.2305 50.4056 88.1535 55.1382L87.9529 56.0099C87.3435 58.6791 83.5326 58.6636 82.9463 55.9868L82.7921 55.2385C81.7469 50.4843 79.3109 46.1485 75.7942 42.7829C72.2775 39.4173 67.839 37.1817 63.0435 36.3462Z" stroke="black" stroke-width="4.5" stroke-linecap="round" stroke-linejoin="round"/>
</svg>
