<svg width="65" height="65" viewBox="0 0 65 65" fill="none" xmlns="http://www.w3.org/2000/svg">
<path d="M26.2363 25.4657C30.4491 20.948 29.9834 13.1844 23.8114 12.9326C20.2058 12.7855 16.906 14.0692 14.6381 16.5013C12.3701 18.9333 11.3198 22.3146 11.718 25.9011C12.3998 32.0406 20.1769 31.9636 24.3898 27.4459L25.313 26.4558L26.2363 25.4657Z" fill="white"/>
<path d="M30.2663 50.3347C22.8664 43.6718 22.269 32.2718 28.9318 24.8719L35.7986 17.2456C39.8796 12.7132 46.8621 12.3472 51.3945 16.4282C55.927 20.5092 56.2929 27.4918 52.2119 32.0242L35.9954 50.0344C34.4963 51.6994 31.9312 51.8338 30.2663 50.3347Z" fill="white"/>
</svg>
